. 
 
http://www.torrenting.com          :     Once & For all ;)


               www . Torrenting . Com 

(((((((((((((= Enjoy No RAR releases =))))))))))))))))))))


...................................NFO:....................................

.[IMG]http://lookpic.com/O/i2/1962/6SYjFaZ.jpeg[/IMG]

[IMG]http://lookpic.com/O/i2/208/zLKkge1q.png[/IMG]
 
http://www.imdb.com/title/tt0401729/

Sources: 26k Video/ILLUMINATI Fullline... THX GUYS :)
 

Format                           : AVI
Format/Info                      : Audio Video Interleave
File size                        : 1.33 GiB
Duration                         : 2h 2mn
Overall bit rate                 : 1 555 Kbps
Writing library                  : VirtualDub build 33848/release

Video
ID                               : 0
Format                           : MPEG-4 Visual
Format profile                   : Advanced Simple@L5
Format settings, BVOP            : Yes
Format settings, QPel            : No
Format settings, GMC             : No warppoints
Format settings, Matrix          : Default (H.263)
Muxing mode                      : Packed bitstream
Codec ID                         : XVID
Codec ID/Hint                    : XviD
Duration                         : 2h 2mn
Bit rate                         : 1 354 Kbps
Width                            : 720 pixels
Height                           : 300 pixels
Display aspect ratio             : 2.40:1
Frame rate                       : 25.000 fps
Color space                      : YUV
Chroma subsampling               : 4:2:0
Bit depth                        : 8 bits
Scan type                        : Progressive
Bits/(Pixel*Frame)               : 0.251
Stream size                      : 1.16 GiB (87%)
Writing library                  : XviD 1.2.1 (UTC 2008-12-04)

Audio
ID                               : 1
Format                           : MPEG Audio
Format version                   : Version 1
Format profile                   : Layer 3
Mode                             : Joint stereo
Codec ID                         : 55
Codec ID/Hint                    : MP3
Duration                         : 2h 2mn
Bit rate mode                    : Constant
Bit rate                         : 192 Kbps
Channel(s)                       : 2 channels
Sampling rate                    : 44.1 KHz
Stream size                      : 168 MiB (12%)
Alignment                        : Split accross interleaves
Interleave, duration             : 40 ms (1.00 video frame)
Interleave, preload duration     : 500 ms


Workdone:
First off we wanted to fix the perspective and rotation of the video. After that was done it was pretty much easy, did the usual filters, levels, brightness, saturation, smoother and subtitler filter to hardcode the subtitles. Also didnt want to make the blacks look to black for dark scenes. 

Audio:
Took some noise out and increase the overall volume a bit

[IMG]http://lookpic.com/O/i2/498/VXbP5gtg.png[/IMG]

[IMG]http://lookpic.com/O/i2/180/AUeBFx0q.jpeg[/IMG]
[IMG]http://lookpic.com/O/i2/1116/b9yYDzsZ.jpeg[/IMG]
[IMG]http://lookpic.com/O/i2/1953/eZ9oJ4EK.jpeg[/IMG]
[IMG]http://lookpic.com/O/i2/318/DFIxYWLF.jpeg[/IMG]
[IMG]http://lookpic.com/O/i2/1042/YgnFyMjp.jpeg[/IMG]

DARK SCENE

[IMG]http://lookpic.com/O/i2/565/BQx1lSl8.jpeg[/IMG]